<?xml version="1.0" encoding="UTF-8" standalone="no"?>
<svg
   xmlns:dc="http://purl.org/dc/elements/1.1/"
   xmlns:cc="http://creativecommons.org/ns#"
   xmlns:rdf="http://www.w3.org/1999/02/22-rdf-syntax-ns#"
   xmlns:svg="http://www.w3.org/2000/svg"
   xmlns="http://www.w3.org/2000/svg"
   xmlns:sodipodi="http://sodipodi.sourceforge.net/DTD/sodipodi-0.dtd"
   xmlns:inkscape="http://www.inkscape.org/namespaces/inkscape"
   version="1.1"
   id="Layer_1"
   x="0px"
   y="0px"
   viewBox="0 0 639.43262 87.245262"
   xml:space="preserve"
   sodipodi:docname="work_in_progress_banner.svg"
   width="639.43262"
   height="87.245262"
   inkscape:export-filename="/home/alex/Nextcloud/Grafiken/2020-08-28_OHM/workinprogress_banner.png"
   inkscape:export-xdpi="300"
   inkscape:export-ydpi="300"
   inkscape:version="1.0.2 (e86c870879, 2021-01-15)"><metadata
   id="metadata523"><rdf:RDF><cc:Work
       rdf:about=""><dc:format>image/svg+xml</dc:format><dc:type
         rdf:resource="http://purl.org/dc/dcmitype/StillImage" /><dc:title></dc:title></cc:Work></rdf:RDF></metadata><defs
   id="defs521" /><sodipodi:namedview
   pagecolor="#ffffff"
   bordercolor="#666666"
   borderopacity="1"
   objecttolerance="10"
   gridtolerance="10"
   guidetolerance="10"
   inkscape:pageopacity="0"
   inkscape:pageshadow="2"
   inkscape:window-width="1920"
   inkscape:window-height="1051"
   id="namedview519"
   showgrid="false"
   inkscape:zoom="0.79292929"
   inkscape:cx="289.60348"
   inkscape:cy="-46.675668"
   inkscape:window-x="0"
   inkscape:window-y="0"
   inkscape:window-maximized="1"
   inkscape:current-layer="Layer_1"
   fit-margin-top="5"
   fit-margin-bottom="5"
   fit-margin-left="5"
   fit-margin-right="5" />
<style
   type="text/css"
   id="style2">
	.st0{fill:#FFFFFF;}
	.st1{fill:#E8AD35;}
	.st2{fill:#010101;stroke:#F9F9FA;stroke-width:4;stroke-miterlimit:10;}
	.st3{fill:none;}
	.st4{font-family:'MyriadPro-Regular';}
	.st5{font-size:18px;}
	.st6{fill:none;stroke:#000000;stroke-width:0.5;stroke-miterlimit:10;}
	.st7{fill:#AA7C2C;}
	.st8{fill:#E8AD36;}
	.st9{fill:#010101;}
	.st10{font-family:'Roboto-Regular';}
	.st11{font-size:14px;}
	.st12{opacity:0.6;fill:#E8C178;}
	.st13{fill:none;stroke:#E8AD36;stroke-width:4;stroke-miterlimit:10;}
	.st14{fill:none;stroke:#E8AD36;stroke-width:3;stroke-linecap:round;stroke-miterlimit:10;}
	.st15{fill:none;stroke:#E8AD36;stroke-width:4;stroke-linecap:round;stroke-miterlimit:10;}
	.st16{opacity:0.4;fill:#E8AD36;}
	.st17{opacity:0.9;fill:#E8AD36;}
	.st18{opacity:0.72;}
	.st19{opacity:0.7;}
	.st20{fill:#E8C178;}
	.st21{opacity:0.6;fill:#E8AD36;}
	.st22{fill:none;stroke:#E8AD36;stroke-width:3;stroke-miterlimit:10;}
	.st23{fill:#F0CF97;}
	.st24{font-size:12px;}
	.st25{fill:none;stroke:#000000;stroke-miterlimit:10;}
	.st26{opacity:0.8;}
</style>














<g
   id="g294"
   transform="matrix(1.5066366,0,0,1.5066366,-746.14807,-741.90003)">
	<g
   id="g256">
		<path
   class="st8"
   d="m 549.09,547.01 c -0.01,0 -0.02,0 -0.03,0 l -43.53,-0.22 c -2,-0.01 -3.83,-0.89 -5.15,-2.46 -1.19,-1.43 -1.84,-3.3 -1.82,-5.26 l 0.15,-17.36 57.62,0.29 -0.15,17.35 c -0.01,0.92 -0.16,1.83 -0.46,2.69 -1.06,3.03 -3.65,4.97 -6.63,4.97 z"
   id="path254" />
	</g>
	<rect
   x="511.51001"
   y="501.64001"
   class="st16"
   width="33.220001"
   height="3.79"
   id="rect258" />
	<path
   class="st17"
   d="m 523.08,505.91 -4.76,-0.65 -0.21,-4.8 2.32,-2.12 c -0.53,-0.07 -1.07,-0.08 -1.62,0 -3.33,0.45 -5.66,3.52 -5.21,6.85 0.27,1.98 1.47,3.61 3.1,4.5 l 1.98,14.52 7.18,-0.98 -1.98,-14.52 c 1.33,-1.3 2.05,-3.19 1.78,-5.17 v 0 z"
   id="path260" />
	<g
   class="st18"
   id="g270">
		<g
   class="st19"
   id="g264">
			<path
   class="st8"
   d="m 554.81,521.99 h -10.07 v -26.25 h 10.07 z"
   id="path262" />
		</g>
		<g
   class="st19"
   id="g268">
			<path
   class="st8"
   d="m 511.51,521.71 h -10.07 v -25.97 h 10.07 z"
   id="path266" />
		</g>
	</g>
	<polygon
   class="st17"
   points="533.66,518.21 533.66,521.99 538.12,521.99 538.12,518.21 536.81,518.21 536.81,503 538.12,503 536.81,497.23 534.99,497.23 533.66,503 534.99,503 534.99,518.21 "
   id="polygon272" />
	<g
   id="g276">
		<path
   class="st8"
   d="m 549.09,547.01 c -0.01,0 -0.02,0 -0.03,0 l -43.53,-0.22 c -2,-0.01 -3.83,-0.89 -5.15,-2.46 -1.19,-1.43 -1.84,-3.3 -1.82,-5.26 l 0.15,-17.36 57.62,0.29 -0.15,17.35 c -0.01,0.92 -0.16,1.83 -0.46,2.69 -1.06,3.03 -3.65,4.97 -6.63,4.97 z"
   id="path274" />
	</g>
	<rect
   x="511.51001"
   y="501.64001"
   class="st16"
   width="33.220001"
   height="3.79"
   id="rect278" />
	<path
   class="st17"
   d="m 523.08,505.91 -4.76,-0.65 -0.21,-4.8 2.32,-2.12 c -0.53,-0.07 -1.07,-0.08 -1.62,0 -3.33,0.45 -5.66,3.52 -5.21,6.85 0.27,1.98 1.47,3.61 3.1,4.5 l 1.98,14.52 7.18,-0.98 -1.98,-14.52 c 1.33,-1.3 2.05,-3.19 1.78,-5.17 v 0 z"
   id="path280" />
	<g
   class="st18"
   id="g290">
		<g
   class="st19"
   id="g284">
			<path
   class="st20"
   d="m 554.81,521.99 h -10.07 v -26.25 h 10.07 z"
   id="path282" />
		</g>
		<g
   class="st19"
   id="g288">
			<path
   class="st20"
   d="m 511.51,521.71 h -10.07 v -25.97 h 10.07 z"
   id="path286" />
		</g>
	</g>
	<polygon
   class="st17"
   points="533.66,518.21 533.66,521.99 538.12,521.99 538.12,518.21 536.81,518.21 536.81,503 538.12,503 536.81,497.23 534.99,497.23 533.66,503 534.99,503 534.99,518.21 "
   id="polygon292" />
</g>























<text
   xml:space="preserve"
   style="font-weight:bold;font-size:40px;line-height:1.25;font-family:'Roboto Mono';-inkscape-font-specification:'Roboto Mono Bold';fill:#aa7c2c;fill-opacity:1"
   x="128.59323"
   y="54.462486"
   id="text1368"><tspan
     sodipodi:role="line"
     id="tspan1366"
     x="128.59323"
     y="54.462486">work in progress</tspan></text><g
   id="g1410"
   transform="matrix(1.5066366,0,0,1.5066366,-203.75455,-741.90003)">
	<g
   id="g1372">
		<path
   class="st8"
   d="m 549.09,547.01 c -0.01,0 -0.02,0 -0.03,0 l -43.53,-0.22 c -2,-0.01 -3.83,-0.89 -5.15,-2.46 -1.19,-1.43 -1.84,-3.3 -1.82,-5.26 l 0.15,-17.36 57.62,0.29 -0.15,17.35 c -0.01,0.92 -0.16,1.83 -0.46,2.69 -1.06,3.03 -3.65,4.97 -6.63,4.97 z"
   id="path1370" />
	</g>
	<rect
   x="511.51001"
   y="501.64001"
   class="st16"
   width="33.220001"
   height="3.79"
   id="rect1374" />
	<path
   class="st17"
   d="m 523.08,505.91 -4.76,-0.65 -0.21,-4.8 2.32,-2.12 c -0.53,-0.07 -1.07,-0.08 -1.62,0 -3.33,0.45 -5.66,3.52 -5.21,6.85 0.27,1.98 1.47,3.61 3.1,4.5 l 1.98,14.52 7.18,-0.98 -1.98,-14.52 c 1.33,-1.3 2.05,-3.19 1.78,-5.17 v 0 z"
   id="path1376" />
	<g
   class="st18"
   id="g1386">
		<g
   class="st19"
   id="g1380">
			<path
   class="st8"
   d="m 554.81,521.99 h -10.07 v -26.25 h 10.07 z"
   id="path1378" />
		</g>
		<g
   class="st19"
   id="g1384">
			<path
   class="st8"
   d="m 511.51,521.71 h -10.07 v -25.97 h 10.07 z"
   id="path1382" />
		</g>
	</g>
	<polygon
   class="st17"
   points="533.66,518.21 533.66,521.99 538.12,521.99 538.12,518.21 536.81,518.21 536.81,503 538.12,503 536.81,497.23 534.99,497.23 533.66,503 534.99,503 534.99,518.21 "
   id="polygon1388" />
	<g
   id="g1392">
		<path
   class="st8"
   d="m 549.09,547.01 c -0.01,0 -0.02,0 -0.03,0 l -43.53,-0.22 c -2,-0.01 -3.83,-0.89 -5.15,-2.46 -1.19,-1.43 -1.84,-3.3 -1.82,-5.26 l 0.15,-17.36 57.62,0.29 -0.15,17.35 c -0.01,0.92 -0.16,1.83 -0.46,2.69 -1.06,3.03 -3.65,4.97 -6.63,4.97 z"
   id="path1390" />
	</g>
	<rect
   x="511.51001"
   y="501.64001"
   class="st16"
   width="33.220001"
   height="3.79"
   id="rect1394" />
	<path
   class="st17"
   d="m 523.08,505.91 -4.76,-0.65 -0.21,-4.8 2.32,-2.12 c -0.53,-0.07 -1.07,-0.08 -1.62,0 -3.33,0.45 -5.66,3.52 -5.21,6.85 0.27,1.98 1.47,3.61 3.1,4.5 l 1.98,14.52 7.18,-0.98 -1.98,-14.52 c 1.33,-1.3 2.05,-3.19 1.78,-5.17 v 0 z"
   id="path1396" />
	<g
   class="st18"
   id="g1406">
		<g
   class="st19"
   id="g1400">
			<path
   class="st20"
   d="m 554.81,521.99 h -10.07 v -26.25 h 10.07 z"
   id="path1398" />
		</g>
		<g
   class="st19"
   id="g1404">
			<path
   class="st20"
   d="m 511.51,521.71 h -10.07 v -25.97 h 10.07 z"
   id="path1402" />
		</g>
	</g>
	<polygon
   class="st17"
   points="533.66,518.21 533.66,521.99 538.12,521.99 538.12,518.21 536.81,518.21 536.81,503 538.12,503 536.81,497.23 534.99,497.23 533.66,503 534.99,503 534.99,518.21 "
   id="polygon1408" />
</g></svg>
